<svg width="24" height="24" viewBox="0 0 24 24" fill="none" xmlns="http://www.w3.org/2000/svg">
<path d="M15.2077 9.18539C15.2077 8.96622 15.0298 8.78939 14.8107 8.78939C14.5915 8.79045 14.4136 8.96834 14.4136 9.18751C14.4136 9.40669 14.5915 9.58457 14.8107 9.58351C15.0298 9.58351 15.2077 9.40563 15.2077 9.18645" stroke="#808080" stroke-width="1.4" stroke-linecap="round" stroke-linejoin="round"/>
<path fill-rule="evenodd" clip-rule="evenodd" d="M3 17.5003L9.05965 11.4269C8.20624 9.20973 8.66365 6.60291 10.4478 4.81456C12.8619 2.39515 16.7764 2.39515 19.1894 4.81456C21.6035 7.23397 21.6035 11.1569 19.1894 13.5774C17.3884 15.3827 14.754 15.8369 12.5284 14.9496L6.492 20.9997H3L3 17.5003Z" stroke="#808080" stroke-width="1.4" stroke-linecap="round" stroke-linejoin="round"/>
</svg>
